<?xml version="1.0" encoding="UTF-8"?>
<!DOCTYPE svg PUBLIC "-//W3C//DTD SVG 1.1//EN" "http://www.w3.org/Graphics/SVG/1.1/DTD/svg11.dtd">
<svg xmlns="http://www.w3.org/2000/svg" version="1.1" width="200px" height="200px" style="shape-rendering:geometricPrecision; text-rendering:geometricPrecision; image-rendering:optimizeQuality; fill-rule:evenodd; clip-rule:evenodd" xmlns:xlink="http://www.w3.org/1999/xlink">
<g><path style="opacity:1" fill="#020202" d="M -0.5,-0.5 C 66.1667,-0.5 132.833,-0.5 199.5,-0.5C 199.5,66.1667 199.5,132.833 199.5,199.5C 132.833,199.5 66.1667,199.5 -0.5,199.5C -0.5,132.833 -0.5,66.1667 -0.5,-0.5 Z"/></g>
<g><path style="opacity:1" fill="#462b14" d="M 159.5,54.5 C 158.391,54.5569 157.391,54.8902 156.5,55.5C 141.473,31.1489 119.473,19.6489 90.5,21C 113.167,20.3333 113.167,19.6667 90.5,19C 121.014,16.5884 144.014,28.4217 159.5,54.5 Z"/></g>
<g><path style="opacity:1" fill="#916e2a" d="M 100.5,24.5 C 101.496,24.4142 102.329,24.7476 103,25.5C 103.392,28.1879 103.892,30.8546 104.5,33.5C 103.809,35.8912 102.809,35.8912 101.5,33.5C 100.833,34.1667 100.167,34.8333 99.5,35.5C 99.1667,35.1667 98.8333,34.8333 98.5,34.5C 99.5514,31.243 100.218,27.9097 100.5,24.5 Z"/></g>
<g><path style="opacity:1" fill="#9a742c" d="M 107.5,25.5 C 109.164,26.9488 109.998,28.9488 110,31.5C 110.202,29.7444 110.702,28.0777 111.5,26.5C 112.494,29.8969 112.16,33.2302 110.5,36.5C 109.667,34.5 108.833,32.5 108,30.5C 107.667,32.1667 107.333,33.8333 107,35.5C 106.341,32.1119 106.508,28.7786 107.5,25.5 Z"/></g>
<g><path style="opacity:1" fill="#96722b" d="M 82.5,26.5 C 83.8734,26.3433 85.2068,26.51 86.5,27C 83.9422,28.3799 83.9422,29.8799 86.5,31.5C 85.0673,33.8088 85.734,35.3088 88.5,36C 87.4366,37.1882 86.1033,37.6882 84.5,37.5C 83.8333,33.8333 83.1667,30.1667 82.5,26.5 Z"/></g>
<g><path style="opacity:1" fill="#8a6928" d="M 89.5,25.5 C 90.8333,25.5 92.1667,25.5 93.5,25.5C 93.741,28.999 92.9076,29.3323 91,26.5C 90.8333,26.8333 90.6667,27.1667 90.5,27.5C 92.2611,29.2525 93.5944,31.2525 94.5,33.5C 94.5658,35.2664 93.7324,36.2664 92,36.5C 89.8125,35.9407 89.1458,34.6073 90,32.5C 90.8113,33.9597 91.6446,34.293 92.5,33.5C 91.5197,32.0186 90.353,30.6853 89,29.5C 88.4209,28.0715 88.5876,26.7382 89.5,25.5 Z"/></g>
<g><path style="opacity:1" fill="#96712b" d="M 126.5,32.5 C 127.833,32.5 129.167,32.5 130.5,32.5C 130.328,36.9707 129.494,37.3041 128,33.5C 126.634,35.3703 125.467,37.3703 124.5,39.5C 125.603,39.9976 126.603,40.3309 127.5,40.5C 125.246,43.2169 123.913,42.7169 123.5,39C 123.84,36.4887 124.84,34.322 126.5,32.5 Z"/></g>
<g><path style="opacity:1" fill="#936f2a" d="M 115.5,27.5 C 118.261,26.9147 119.927,27.9147 120.5,30.5C 120.198,33.9694 118.698,36.6361 116,38.5C 114.268,38.2664 113.434,37.2664 113.5,35.5C 114.378,32.8702 115.045,30.2035 115.5,27.5 Z"/></g>
<g><path style="opacity:1" fill="#140f07" d="M 117.5,28.5 C 118.647,31.289 118.147,33.9556 116,36.5C 115.855,33.7393 116.355,31.0726 117.5,28.5 Z"/></g>
<g><path style="opacity:1" fill="#95712b" d="M 78.5,27.5 C 80.3909,29.7944 81.3909,32.6278 81.5,36C 81.1667,36.8333 80.8333,37.6667 80.5,38.5C 77.9494,36.1063 75.9494,33.273 74.5,30C 75.1667,29.3333 75.8333,29.3333 76.5,30C 77.4601,31.4194 78.2935,32.9194 79,34.5C 79.0178,32.2028 78.8511,29.8695 78.5,27.5 Z"/></g>
<g><path style="opacity:1" fill="#926e2a" d="M 69.5,31.5 C 70.2389,31.369 70.9056,31.5357 71.5,32C 73.31,34.6443 75.31,37.1443 77.5,39.5C 76.6086,40.5896 75.6086,40.5896 74.5,39.5C 73.7492,40.376 73.2492,41.376 73,42.5C 71.3415,39.0233 70.1749,35.3566 69.5,31.5 Z"/></g>
<g><path style="opacity:1" fill="#9a742c" d="M 64.5,34.5 C 66.969,37.1438 69.3024,39.9772 71.5,43C 69.6133,43.1626 68.1133,42.3293 67,40.5C 66.2888,42.3668 66.7888,43.8668 68.5,45C 68.1667,45.1667 67.8333,45.3333 67.5,45.5C 65.1455,43.2952 63.1455,40.7952 61.5,38C 61.6667,37.5 61.8333,37 62,36.5C 63.1133,38.3293 64.6133,39.1626 66.5,39C 64.9632,37.8904 64.2965,36.3904 64.5,34.5 Z"/></g>
<g><path style="opacity:1" fill="#050303" d="M 139.5,62.5 C 139.5,63.1667 139.167,63.5 138.5,63.5C 123.33,43.6158 103.83,37.9492 80,46.5C 77.7417,48.3801 75.2417,49.8801 72.5,51C 67.9275,54.7498 63.5942,58.5831 59.5,62.5C 58.8333,62.5 58.1667,62.5 57.5,62.5C 62.638,57.5324 67.9714,52.6991 73.5,48C 98.5757,35.207 120.409,39.3736 139,60.5C 139.464,61.0944 139.631,61.7611 139.5,62.5 Z"/></g>
<g><path style="opacity:1" fill="#9d762d" d="M 133.5,35.5 C 134.212,37.7942 133.379,39.7942 131,41.5C 130.333,42.5 130.333,43.5 131,44.5C 132.763,41.9804 134.763,39.6471 137,37.5C 136.496,41.1303 134.496,43.797 131,45.5C 129.5,45.3333 128.667,44.5 128.5,43C 129.799,40.23 131.465,37.73 133.5,35.5 Z"/></g>
<g><path style="opacity:1" fill="#442913" d="M 42.5,55.5 C 41.609,54.8902 40.609,54.5569 39.5,54.5C 49.4025,37.0346 64.0692,25.5346 83.5,20C 85.5,19.3333 87.5,19.3333 89.5,20C 85.1482,20.4189 84.8149,21.0855 88.5,22C 68.1717,26.5199 52.8383,37.6866 42.5,55.5 Z"/></g>
<g><path style="opacity:1" fill="#27130a" d="M 138.5,63.5 C 131.669,65.8783 125.335,64.8783 119.5,60.5C 120.206,61.8543 120.206,63.521 119.5,65.5C 117.49,67.1713 115.157,67.838 112.5,67.5C 112.859,55.0288 106.859,49.8621 94.5,52C 88.0165,55.1322 85.3498,60.2989 86.5,67.5C 82.7292,68.2263 80.0626,66.893 78.5,63.5C 80.6753,59.7563 80.0086,59.5897 76.5,63C 72.4063,63.5569 68.4063,64.3902 64.5,65.5C 64.719,66.675 64.3857,67.675 63.5,68.5C 62.269,67.3493 62.269,66.1827 63.5,65C 61.9336,64.3918 60.6002,63.5585 59.5,62.5C 63.5942,58.5831 67.9275,54.7498 72.5,51C 75.2417,49.8801 77.7417,48.3801 80,46.5C 103.83,37.9492 123.33,43.6158 138.5,63.5 Z"/></g>
<g><path style="opacity:1" fill="#926e2a" d="M 56.5,40.5 C 60.8466,40.942 61.18,41.7753 57.5,43C 59.2852,44.1628 61.2852,44.8295 63.5,45C 66.3081,47.2145 65.9748,48.7145 62.5,49.5C 61.8333,49.1667 61.1667,48.8333 60.5,48.5C 61.3966,48.3309 62.3966,47.9976 63.5,47.5C 61.3435,46.2096 59.0101,45.3763 56.5,45C 55.2721,43.5098 55.2721,42.0098 56.5,40.5 Z"/></g>
<g><path style="opacity:1" fill="#a27a2f" d="M 139.5,39.5 C 140.962,40.4577 142.295,41.6244 143.5,43C 140.107,44.222 137.44,46.3886 135.5,49.5C 134.479,48.9984 134.312,48.3317 135,47.5C 136.833,45.6667 138.667,43.8333 140.5,42C 139.748,41.3292 139.414,40.4959 139.5,39.5 Z"/></g>
<g><path style="opacity:1" fill="#4f3015" d="M 142.5,61.5 C 141.791,62.404 140.791,62.7373 139.5,62.5C 139.631,61.7611 139.464,61.0944 139,60.5C 120.409,39.3736 98.5757,35.207 73.5,48C 67.9714,52.6991 62.638,57.5324 57.5,62.5C 56.8333,62.5 56.5,62.1667 56.5,61.5C 74.9587,37.3025 97.9587,31.8025 125.5,45C 132.332,49.3325 137.999,54.8325 142.5,61.5 Z"/></g>
<g><path style="opacity:1" fill="#141414" d="M 112.5,67.5 C 112.5,68.1667 112.5,68.8333 112.5,69.5C 107.714,77.1504 101.048,79.3171 92.5,76C 90.2659,73.9373 88.2659,71.7706 86.5,69.5C 86.5,68.8333 86.5,68.1667 86.5,67.5C 85.3498,60.2989 88.0165,55.1322 94.5,52C 106.859,49.8621 112.859,55.0288 112.5,67.5 Z"/></g>
<g><path style="opacity:1" fill="#803d1d" d="M 159.5,54.5 C 160.873,54.3433 162.207,54.51 163.5,55C 162.177,55.8159 161.511,56.9826 161.5,58.5C 162.766,59.0899 164.099,59.5899 165.5,60C 164.956,60.7172 164.289,61.2172 163.5,61.5C 162.29,61.9321 161.29,62.5987 160.5,63.5C 156.126,64.3436 151.793,65.3436 147.5,66.5C 145.597,66.7959 143.93,67.4625 142.5,68.5C 142.167,68.5 141.833,68.5 141.5,68.5C 137.311,70.1184 132.978,71.1184 128.5,71.5C 128.657,72.8734 128.49,74.2068 128,75.5C 124.855,78.3038 121.688,80.9704 118.5,83.5C 117.833,83.5 117.167,83.5 116.5,83.5C 115.895,81.9743 114.729,80.9743 113,80.5C 112.333,78.8333 112.333,77.1667 113,75.5C 118.258,71.7876 124.092,69.6209 130.5,69C 126.13,64.378 122.13,64.5447 118.5,69.5C 116.468,68.181 114.468,68.181 112.5,69.5C 112.5,68.8333 112.5,68.1667 112.5,67.5C 115.157,67.838 117.49,67.1713 119.5,65.5C 120.206,63.521 120.206,61.8543 119.5,60.5C 125.335,64.8783 131.669,65.8783 138.5,63.5C 139.167,63.5 139.5,63.1667 139.5,62.5C 140.791,62.7373 141.791,62.404 142.5,61.5C 147.162,59.5026 151.829,57.5026 156.5,55.5C 157.391,54.8902 158.391,54.5569 159.5,54.5 Z"/></g>
<g><path style="opacity:1" fill="#e4e4e4" d="M 92.5,72.5 C 95.0076,67.4839 95.0076,62.4839 92.5,57.5C 93.6763,56.3654 95.6763,56.1988 98.5,57C 96.7629,63.5363 97.7629,64.0363 101.5,58.5C 101.291,57.914 100.957,57.414 100.5,57C 102.5,56.3333 104.5,56.3333 106.5,57C 103.936,58.0623 102.269,59.8956 101.5,62.5C 103.104,66.2068 105.104,69.7068 107.5,73C 105.167,73.6667 102.833,73.6667 100.5,73C 101.068,70.2446 100.235,67.7446 98,65.5C 97.231,68.0991 97.3977,70.5991 98.5,73C 95.6763,73.8012 93.6763,73.6346 92.5,72.5 Z"/></g>
<g><path style="opacity:1" fill="#341e12" d="M 161.5,58.5 C 161.209,59.6491 160.376,60.3158 159,60.5C 157.159,61.125 155.326,61.2917 153.5,61C 155.649,59.8362 157.815,58.6695 160,57.5C 160.383,58.056 160.883,58.3893 161.5,58.5 Z"/></g>
<g><path style="opacity:1" fill="#592a15" d="M 35.5,61.5 C 36.1667,61.5 36.5,61.8333 36.5,62.5C 32.9296,70.1108 30.5962,78.1108 29.5,86.5C 28.7611,86.631 28.0944,86.4643 27.5,86C 29.1664,77.4987 31.8331,69.3321 35.5,61.5 Z"/></g>
<g><path style="opacity:1" fill="#030202" d="M 38.5,63.5 C 42.7869,64.7069 47.1203,65.7069 51.5,66.5C 52.0618,68.4961 51.5618,70.4961 50,72.5C 49.7679,71.2625 49.2679,70.2625 48.5,69.5C 43.8098,67.4986 41.4765,69.1652 41.5,74.5C 38.3844,76.9146 35.3844,79.5813 32.5,82.5C 31.9569,82.44 31.6236,82.1067 31.5,81.5C 32.7854,74.9551 35.1187,68.9551 38.5,63.5 Z"/></g>
<g><path style="opacity:1" fill="#150f07" d="M 160.5,63.5 C 162.16,67.0127 164.16,69.6793 166.5,71.5C 165.572,72.7678 165.405,74.1011 166,75.5C 166.333,74.8333 166.667,74.1667 167,73.5C 167.496,75.0349 167.33,76.5349 166.5,78C 166.944,79.7618 167.444,79.5951 168,77.5C 168.483,78.448 168.649,79.448 168.5,80.5C 167.833,81.1667 167.167,81.8333 166.5,82.5C 165.518,81.8592 164.518,81.1925 163.5,80.5C 162.818,81.2427 162.151,81.9094 161.5,82.5C 161.36,80.8762 162.027,79.7096 163.5,79C 160.261,76.1155 157.594,76.7822 155.5,81C 157.127,84.2988 158.627,84.1322 160,80.5C 160.579,81.9285 160.412,83.2618 159.5,84.5C 158.726,85.1471 157.726,85.4805 156.5,85.5C 154.97,85.3601 153.97,84.6935 153.5,83.5C 153.657,82.1266 153.49,80.7932 153,79.5C 152.667,80.1667 152.333,80.8333 152,81.5C 150.572,76.8145 148.739,72.3145 146.5,68C 147.056,67.6174 147.389,67.1174 147.5,66.5C 151.793,65.3436 156.126,64.3436 160.5,63.5 Z"/></g>
<g><path style="opacity:1" fill="#919292" d="M 92.5,57.5 C 95.0076,62.4839 95.0076,67.4839 92.5,72.5C 92.5,67.5 92.5,62.5 92.5,57.5 Z"/></g>
<g><path style="opacity:1" fill="#251209" d="M 57.5,68.5 C 61.6734,70.1116 66.0068,71.1116 70.5,71.5C 70.3433,72.8734 70.51,74.2068 71,75.5C 74.145,78.3038 77.3117,80.9704 80.5,83.5C 71.0504,83.7665 61.5504,84.4332 52,85.5C 52.6924,79.5859 54.5257,73.9193 57.5,68.5 Z"/></g>
<g><path style="opacity:1" fill="#7e3c1d" d="M 39.5,54.5 C 40.609,54.5569 41.609,54.8902 42.5,55.5C 47.197,57.5174 51.8636,59.5174 56.5,61.5C 56.5,62.1667 56.8333,62.5 57.5,62.5C 58.1667,62.5 58.8333,62.5 59.5,62.5C 60.6002,63.5585 61.9336,64.3918 63.5,65C 62.269,66.1827 62.269,67.3493 63.5,68.5C 64.3857,67.675 64.719,66.675 64.5,65.5C 68.4063,64.3902 72.4063,63.5569 76.5,63C 80.0086,59.5897 80.6753,59.7563 78.5,63.5C 80.0626,66.893 82.7292,68.2263 86.5,67.5C 86.5,68.1667 86.5,68.8333 86.5,69.5C 84.4159,68.7517 82.4159,68.7517 80.5,69.5C 76.7298,64.4552 72.7298,64.2885 68.5,69C 73.8243,69.7195 78.8243,71.3861 83.5,74C 86.7655,76.0467 87.0989,78.2134 84.5,80.5C 83.4489,81.2223 82.7822,82.2223 82.5,83.5C 81.8333,83.5 81.1667,83.5 80.5,83.5C 77.3117,80.9704 74.145,78.3038 71,75.5C 70.51,74.2068 70.3433,72.8734 70.5,71.5C 66.0068,71.1116 61.6734,70.1116 57.5,68.5C 56.8333,68.5 56.1667,68.5 55.5,68.5C 54.4863,67.3263 53.153,66.6596 51.5,66.5C 47.1203,65.7069 42.7869,64.7069 38.5,63.5C 38.1583,62.6618 37.4916,62.3284 36.5,62.5C 36.5,61.8333 36.1667,61.5 35.5,61.5C 33.5054,60.7667 33.3387,60.1 35,59.5C 38.4851,60.4988 41.9851,60.9988 45.5,61C 43.4534,59.9274 41.4534,58.7607 39.5,57.5C 38.914,57.7093 38.414,58.0426 38,58.5C 37.5348,57.0692 36.7014,55.9025 35.5,55C 36.7932,54.51 38.1266,54.3433 39.5,54.5 Z"/></g>
<g><path style="opacity:1" fill="#2a150c" d="M 86.5,69.5 C 88.2659,71.7706 90.2659,73.9373 92.5,76C 101.048,79.3171 107.714,77.1504 112.5,69.5C 114.468,68.181 116.468,68.181 118.5,69.5C 122.13,64.5447 126.13,64.378 130.5,69C 124.092,69.6209 118.258,71.7876 113,75.5C 112.333,77.1667 112.333,78.8333 113,80.5C 114.729,80.9743 115.895,81.9743 116.5,83.5C 105.167,83.5 93.8333,83.5 82.5,83.5C 82.7822,82.2223 83.4489,81.2223 84.5,80.5C 87.0989,78.2134 86.7655,76.0467 83.5,74C 78.8243,71.3861 73.8243,69.7195 68.5,69C 72.7298,64.2885 76.7298,64.4552 80.5,69.5C 82.4159,68.7517 84.4159,68.7517 86.5,69.5 Z"/></g>
<g><path style="opacity:1" fill="#251209" d="M 141.5,68.5 C 145.066,73.528 147.066,79.1947 147.5,85.5C 137.729,84.2287 128.062,83.5621 118.5,83.5C 121.688,80.9704 124.855,78.3038 128,75.5C 128.49,74.2068 128.657,72.8734 128.5,71.5C 132.978,71.1184 137.311,70.1184 141.5,68.5 Z"/></g>
<g><path style="opacity:1" fill="#583016" d="M 163.5,61.5 C 167.092,67.5621 168.758,73.8954 168.5,80.5C 168.649,79.448 168.483,78.448 168,77.5C 167.444,79.5951 166.944,79.7618 166.5,78C 167.33,76.5349 167.496,75.0349 167,73.5C 166.667,74.1667 166.333,74.8333 166,75.5C 165.405,74.1011 165.572,72.7678 166.5,71.5C 164.16,69.6793 162.16,67.0127 160.5,63.5C 161.29,62.5987 162.29,61.9321 163.5,61.5 Z"/></g>
<g><path style="opacity:1" fill="#20180c" d="M 48.5,69.5 C 48.3939,72.0786 49.0605,74.412 50.5,76.5C 48.3862,77.3602 47.2195,79.0268 47,81.5C 46.51,80.2068 46.3433,78.8734 46.5,77.5C 44.3453,77.628 42.3453,77.128 40.5,76C 41.056,75.6174 41.3893,75.1174 41.5,74.5C 41.4765,69.1652 43.8098,67.4986 48.5,69.5 Z"/></g>
<g><path style="opacity:1" fill="#3e2e14" d="M 36.5,62.5 C 37.4916,62.3284 38.1583,62.6618 38.5,63.5C 35.1187,68.9551 32.7854,74.9551 31.5,81.5C 31.6236,82.1067 31.9569,82.44 32.5,82.5C 32.2624,84.4044 31.2624,85.7377 29.5,86.5C 30.5962,78.1108 32.9296,70.1108 36.5,62.5 Z"/></g>
<g><path style="opacity:1" fill="#26130b" d="M 84.5,80.5 C 79.8979,80.616 76.0646,78.9493 73,75.5C 72.3013,73.9262 72.6346,72.5929 74,71.5C 78.4202,72.956 82.2535,75.2893 85.5,78.5C 85.1373,79.1835 84.8039,79.8501 84.5,80.5 Z"/></g>
<g><path style="opacity:1" fill="#27140b" d="M 121.5,72.5 C 123.167,72.5 124.833,72.5 126.5,72.5C 125.346,77.3545 122.18,80.0212 117,80.5C 114.544,80.7132 113.544,79.7132 114,77.5C 116.479,75.6859 118.979,74.0192 121.5,72.5 Z"/></g>
<g><path style="opacity:1" fill="#533516" d="M 51.5,66.5 C 53.153,66.6596 54.4863,67.3263 55.5,68.5C 53.8333,71.1667 52.1667,73.8333 50.5,76.5C 49.0605,74.412 48.3939,72.0786 48.5,69.5C 49.2679,70.2625 49.7679,71.2625 50,72.5C 51.5618,70.4961 52.0618,68.4961 51.5,66.5 Z"/></g>
<g><path style="opacity:1" fill="#533215" d="M 147.5,66.5 C 147.389,67.1174 147.056,67.6174 146.5,68C 148.739,72.3145 150.572,76.8145 152,81.5C 152.333,80.8333 152.667,80.1667 153,79.5C 153.49,80.7932 153.657,82.1266 153.5,83.5C 152.849,84.0906 152.182,84.7573 151.5,85.5C 149.566,80.0468 147.233,74.7134 144.5,69.5C 144.043,68.7025 143.376,68.3691 142.5,68.5C 143.93,67.4625 145.597,66.7959 147.5,66.5 Z"/></g>
<g><path style="opacity:1" fill="#422f14" d="M 41.5,74.5 C 41.3893,75.1174 41.056,75.6174 40.5,76C 42.3453,77.128 44.3453,77.628 46.5,77.5C 46.3433,78.8734 46.51,80.2068 47,81.5C 47.2195,79.0268 48.3862,77.3602 50.5,76.5C 50.2643,79.7852 49.2643,82.7852 47.5,85.5C 46.1268,83.5101 45.1268,81.3434 44.5,79C 42.5753,79.1349 40.5753,79.3016 38.5,79.5C 38.2865,81.1439 38.6198,82.6439 39.5,84C 38.0677,84.2703 37.0677,83.6036 36.5,82C 37.4506,81.2825 37.6172,80.4491 37,79.5C 35.871,81.1412 34.371,82.1412 32.5,82.5C 35.3844,79.5813 38.3844,76.9146 41.5,74.5 Z"/></g>
<g><path style="opacity:1" fill="#342813" d="M 161.5,82.5 C 161.5,83.8333 160.833,84.5 159.5,84.5C 160.412,83.2618 160.579,81.9285 160,80.5C 158.627,84.1322 157.127,84.2988 155.5,81C 157.594,76.7822 160.261,76.1155 163.5,79C 162.027,79.7096 161.36,80.8762 161.5,82.5 Z"/></g>
<g><path style="opacity:1" fill="#5a3b18" d="M 168.5,80.5 C 168.457,84.8926 168.957,85.2259 170,81.5C 170.273,83.1012 170.773,84.6012 171.5,86C 168.632,86.6401 166.965,85.4734 166.5,82.5C 167.167,81.8333 167.833,81.1667 168.5,80.5 Z"/></g>
<g><path style="opacity:1" fill="#dddddd" d="M 94.5,103.5 C 93.791,104.404 92.791,104.737 91.5,104.5C 91.7233,102.658 92.0566,100.825 92.5,99C 92.6134,97.3009 91.9468,96.1342 90.5,95.5C 88.8656,96.2066 87.5323,97.3732 86.5,99C 85.2068,99.49 83.8734,99.6567 82.5,99.5C 82.2606,101.467 82.5939,103.301 83.5,105C 81.5,105.667 79.5,105.667 77.5,105C 78.056,104.617 78.3893,104.117 78.5,103.5C 80.0265,102.508 80.6932,101.008 80.5,99C 80.3333,97.8333 80.1667,96.6667 80,95.5C 79.79,97.0581 79.29,98.3915 78.5,99.5C 78.7839,96.2234 78.4505,93.0567 77.5,90C 80.5,89.3333 83.5,89.3333 86.5,90C 88.391,92.8016 91.0577,93.9682 94.5,93.5C 94.5,96.8333 94.5,100.167 94.5,103.5 Z"/></g>
<g><path style="opacity:1" fill="#cecece" d="M 43.5,89.5 C 46.8606,90.2032 47.1939,91.5365 44.5,93.5C 42.3576,92.5629 42.0243,91.2296 43.5,89.5 Z"/></g>
<g><path style="opacity:1" fill="#c9c9c9" d="M 91.5,87.5 C 94.8606,88.2032 95.1939,89.5365 92.5,91.5C 90.3576,90.5629 90.0243,89.2296 91.5,87.5 Z"/></g>
<g><path style="opacity:1" fill="#747475" d="M 137.5,90.5 C 137.56,89.9569 137.893,89.6236 138.5,89.5C 139.17,91.2914 139.837,92.9581 140.5,94.5C 140.44,95.0431 140.107,95.3764 139.5,95.5C 138.83,93.7086 138.163,92.0419 137.5,90.5 Z"/></g>
<g><path style="opacity:1" fill="#1c1c1d" d="M 82.5,90.5 C 84.8896,90.6848 85.8896,92.0182 85.5,94.5C 85.6578,96.3186 84.9911,97.6519 83.5,98.5C 82.52,95.9135 82.1866,93.2469 82.5,90.5 Z"/></g>
<g><path style="opacity:1" fill="#cecece" d="M 96.5,93.5 C 99.8499,93.335 103.183,93.5017 106.5,94C 104.188,96.414 102.521,99.2473 101.5,102.5C 103.325,103.571 104.492,102.904 105,100.5C 105.667,102.167 105.667,103.833 105,105.5C 102.308,105.621 99.4745,105.288 96.5,104.5C 97.7277,101.254 99.3943,98.2538 101.5,95.5C 101.167,95.1667 100.833,94.8333 100.5,94.5C 99.2807,95.2634 98.2807,96.2634 97.5,97.5C 96.5713,96.3112 96.238,94.9778 96.5,93.5 Z"/></g>
<g><path style="opacity:1" fill="#cccccd" d="M 109.5,98.5 C 107.787,97.3646 107.12,95.698 107.5,93.5C 110.85,93.335 114.183,93.5017 117.5,94C 114.8,96.8636 113.466,100.03 113.5,103.5C 115.712,99.8903 116.712,100.557 116.5,105.5C 113.428,105.817 110.428,105.484 107.5,104.5C 109.086,102.827 109.753,100.827 109.5,98.5 Z"/></g>
<g><path style="opacity:1" fill="#727272" d="M 166.5,97.5 C 165.5,97.5 164.5,97.5 163.5,97.5C 163.715,95.8212 163.048,94.8212 161.5,94.5C 162.172,93.7326 163.005,93.0659 164,92.5C 164.335,94.5029 165.168,96.1696 166.5,97.5 Z"/></g>
<g><path style="opacity:1" fill="#959596" d="M 135.5,92.5 C 136.117,92.6107 136.617,92.944 137,93.5C 137.667,96.1667 137.667,98.8333 137,101.5C 136.617,100.944 136.117,100.611 135.5,100.5C 135.316,98.1438 135.316,95.4771 135.5,92.5 Z"/></g>
<g><path style="opacity:1" fill="#191919" d="M 109.5,98.5 C 109.117,95.538 110.117,94.538 112.5,95.5C 111.812,96.8549 110.812,97.8549 109.5,98.5 Z"/></g>
<g><path style="opacity:1" fill="#c7c7c8" d="M 153.5,96.5 C 154.5,96.5 155.5,96.5 156.5,96.5C 156.216,98.4147 156.549,100.081 157.5,101.5C 156.181,103.468 156.181,105.468 157.5,107.5C 155.741,108.754 154.241,108.421 153,106.5C 151.506,107.747 150.006,107.747 148.5,106.5C 147.574,102.906 147.241,99.2396 147.5,95.5C 148.833,95.5 150.167,95.5 151.5,95.5C 151.18,98.8984 151.513,102.232 152.5,105.5C 153.318,102.254 153.651,99.2541 153.5,96.5 Z"/></g>
<g><path style="opacity:1" fill="#d4d4d4" d="M 68.5,90.5 C 70.3464,90.2222 71.6798,90.8888 72.5,92.5C 71.0202,93.1131 69.6869,93.4464 68.5,93.5C 72.4001,98.5556 71.0667,101.722 64.5,103C 66.2852,104.163 68.2852,104.83 70.5,105C 73.0636,107.276 72.7303,109.276 69.5,111C 61.8408,112.173 59.8408,109.34 63.5,102.5C 62.696,101.059 62.0294,99.5589 61.5,98C 63.4952,95.0911 65.8286,92.5911 68.5,90.5 Z"/></g>
<g><path style="opacity:1" fill="#101010" d="M 65.5,95.5 C 66.6935,95.9704 67.3601,96.9704 67.5,98.5C 67.1667,99.5 66.8333,100.5 66.5,101.5C 65.5344,99.604 65.2011,97.604 65.5,95.5 Z"/></g>
<g><path style="opacity:1" fill="#cfcfcf" d="M 120.5,93.5 C 123.044,93.1043 125.211,93.771 127,95.5C 127.212,98.7577 127.712,101.924 128.5,105C 125.24,105.784 122.073,105.617 119,104.5C 117.244,99.7776 119.077,97.7776 124.5,98.5C 123.982,93.8968 122.649,93.5634 120.5,97.5C 119.374,96.1916 119.374,94.8583 120.5,93.5 Z"/></g>
<g><path style="opacity:1" fill="#dedede" d="M 137.5,90.5 C 138.163,92.0419 138.83,93.7086 139.5,95.5C 140.107,95.3764 140.44,95.0431 140.5,94.5C 141.822,94.33 142.989,94.6634 144,95.5C 145.275,98.9909 145.775,102.491 145.5,106C 143.833,106.667 142.167,106.667 140.5,106C 141.787,102.875 141.787,99.7087 140.5,96.5C 139.914,96.7093 139.414,97.0426 139,97.5C 138.223,100.429 138.39,103.263 139.5,106C 137.741,106.798 136.074,106.631 134.5,105.5C 135.309,103.929 135.643,102.262 135.5,100.5C 136.117,100.611 136.617,100.944 137,101.5C 137.667,98.8333 137.667,96.1667 137,93.5C 136.617,92.944 136.117,92.6107 135.5,92.5C 134.34,90.7973 135.007,90.1307 137.5,90.5 Z"/></g>
<g><path style="opacity:1" fill="#d1d1d1" d="M 51.5,94.5 C 53.9622,94.6177 56.4622,94.951 59,95.5C 59.978,98.7271 60.478,102.06 60.5,105.5C 55.5203,107.591 54.187,106.257 56.5,101.5C 56.3333,100.167 56.1667,98.8333 56,97.5C 55.586,97.0426 55.086,96.7093 54.5,96.5C 53.2126,99.7087 53.2126,102.875 54.5,106C 53.2068,106.49 51.8734,106.657 50.5,106.5C 50.0548,103.72 50.0548,101.053 50.5,98.5C 49.8333,97.8333 49.1667,97.1667 48.5,96.5C 49.6016,95.8243 50.6016,95.1577 51.5,94.5 Z"/></g>
<g><path style="opacity:1" fill="#757576" d="M 78.5,103.5 C 78.5,102.167 78.5,100.833 78.5,99.5C 79.29,98.3915 79.79,97.0581 80,95.5C 80.1667,96.6667 80.3333,97.8333 80.5,99C 80.6932,101.008 80.0265,102.508 78.5,103.5 Z"/></g>
<g><path style="opacity:1" fill="#878788" d="M 153.5,96.5 C 154.568,95.5655 155.901,95.2322 157.5,95.5C 157.5,97.5 157.5,99.5 157.5,101.5C 156.549,100.081 156.216,98.4147 156.5,96.5C 155.5,96.5 154.5,96.5 153.5,96.5 Z"/></g>
<g><path style="opacity:1" fill="#c5c5c5" d="M 161.5,94.5 C 163.048,94.8212 163.715,95.8212 163.5,97.5C 164.5,97.5 165.5,97.5 166.5,97.5C 165.791,98.404 164.791,98.7373 163.5,98.5C 163.335,101.518 163.502,104.518 164,107.5C 164.535,105.729 165.369,105.396 166.5,106.5C 164.423,109.119 162.257,109.119 160,106.5C 160.063,103.428 159.896,100.428 159.5,97.5C 160.193,96.4822 160.859,95.4822 161.5,94.5 Z"/></g>
<g><path style="opacity:1" fill="#3b3b3c" d="M 122.5,99.5 C 124.972,100.749 125.139,102.415 123,104.5C 121.212,102.977 121.045,101.31 122.5,99.5 Z"/></g>
<g><path style="opacity:1" fill="#cecece" d="M 43.5,106.5 C 45.2029,104.149 45.7029,101.482 45,98.5C 44.79,100.058 44.29,101.391 43.5,102.5C 43.6816,100.409 43.3482,98.4086 42.5,96.5C 43.6888,95.5713 45.0222,95.238 46.5,95.5C 46.6524,99.2617 47.319,102.928 48.5,106.5C 45.1981,107.329 41.8648,107.996 38.5,108.5C 36.4311,108.176 36.0977,107.342 37.5,106C 36.7894,104.745 35.956,103.579 35,102.5C 34.2571,104.441 34.4238,106.274 35.5,108C 33.8659,108.494 32.1992,108.66 30.5,108.5C 30.3926,103.415 29.7259,98.4153 28.5,93.5C 30.4213,92.359 32.4213,92.1923 34.5,93C 33.4238,94.7261 33.2571,96.5594 34,98.5C 35.9592,96.4744 36.7925,94.3078 36.5,92C 37.9437,91.2195 39.277,91.3861 40.5,92.5C 38.457,93.5794 37.1237,95.246 36.5,97.5C 37.8298,101.472 40.1632,104.472 43.5,106.5 Z"/></g>
<g><path style="opacity:1" fill="#767677" d="M 43.5,106.5 C 43.5,105.167 43.5,103.833 43.5,102.5C 44.29,101.391 44.79,100.058 45,98.5C 45.7029,101.482 45.2029,104.149 43.5,106.5 Z"/></g>
<g><path style="opacity:1" fill="#8a8a8a" d="M 90.5,95.5 C 91.9468,96.1342 92.6134,97.3009 92.5,99C 92.0566,100.825 91.7233,102.658 91.5,104.5C 92.791,104.737 93.791,104.404 94.5,103.5C 95.0431,103.56 95.3764,103.893 95.5,104.5C 93.5,105.833 91.5,105.833 89.5,104.5C 90.4066,101.579 90.7399,98.5788 90.5,95.5 Z"/></g>
<g><path style="opacity:1" fill="#29292a" d="M 66.5,106.5 C 67.7072,107.189 69.0406,107.355 70.5,107C 68.6259,109.455 66.2925,109.955 63.5,108.5C 64.6016,107.824 65.6016,107.158 66.5,106.5 Z"/></g>
<g><path style="opacity:1" fill="#5b2c15" d="M 101.5,112.5 C 106.328,112.385 107.661,114.552 105.5,119C 104.207,119.49 102.873,119.657 101.5,119.5C 101.5,117.167 101.5,114.833 101.5,112.5 Z"/></g>
<g><path style="opacity:1" fill="#6a3218" d="M 114.5,115.5 C 114.56,114.957 114.893,114.624 115.5,114.5C 116.833,116.167 116.833,117.833 115.5,119.5C 114.912,117.988 114.578,116.655 114.5,115.5 Z"/></g>
<g><path style="opacity:1" fill="#6a3218" d="M 90.5,113.5 C 91.7562,113.461 92.7562,113.961 93.5,115C 92.783,116.652 92.4496,118.152 92.5,119.5C 91.5233,117.589 90.8567,115.589 90.5,113.5 Z"/></g>
<g><path style="opacity:1" fill="#5e2c15" d="M 83.5,114.5 C 84.8333,114.5 86.1667,114.5 87.5,114.5C 87.5076,120.208 87.0076,120.541 86,115.5C 84.5422,120.594 83.7088,120.261 83.5,114.5 Z"/></g>
<g><path style="opacity:1" fill="#462112" d="M 125.5,114.5 C 127.484,114.484 128.484,115.484 128.5,117.5C 127.167,121.5 125.833,121.5 124.5,117.5C 124.685,116.416 125.018,115.416 125.5,114.5 Z"/></g>
<g><path style="opacity:1" fill="#4f2613" d="M 94.5,114.5 C 98.1612,114.35 99.1612,115.85 97.5,119C 96.552,119.483 95.552,119.649 94.5,119.5C 94.5,117.833 94.5,116.167 94.5,114.5 Z"/></g>
<g><path style="opacity:1" fill="#442112" d="M 111.5,113.5 C 111.56,112.957 111.893,112.624 112.5,112.5C 113.474,114.743 113.808,117.076 113.5,119.5C 111.5,119.5 109.5,119.5 107.5,119.5C 106.737,115.591 108.07,114.258 111.5,115.5C 112.773,114.743 112.773,114.077 111.5,113.5 Z"/></g>
<g><path style="opacity:1" fill="#4c2412" d="M 122.5,112.5 C 123.8,115.024 123.8,117.691 122.5,120.5C 120.65,119.758 119.984,118.758 120.5,117.5C 119.833,118.167 119.167,118.833 118.5,119.5C 117.386,118.277 117.219,116.944 118,115.5C 119,114.167 120,114.167 121,115.5C 122.039,114.756 122.539,113.756 122.5,112.5 Z"/></g>
<g><path style="opacity:1" fill="#572a14" d="M 79.5,114.5 C 82.0838,115.048 83.0838,116.715 82.5,119.5C 81.1667,119.5 79.8333,119.5 78.5,119.5C 78.366,117.708 78.6993,116.042 79.5,114.5 Z"/></g>
<g><path style="opacity:1" fill="#4d2513" d="M 129.5,116.5 C 129.56,115.957 129.893,115.624 130.5,115.5C 131.281,116.729 131.781,118.062 132,119.5C 132.623,115.068 133.623,114.735 135,118.5C 135.483,117.552 135.649,116.552 135.5,115.5C 136.675,115.281 137.675,115.614 138.5,116.5C 137.167,117.5 137.167,118.5 138.5,119.5C 138.167,120.5 137.5,121.167 136.5,121.5C 134.556,120.811 132.556,120.311 130.5,120C 129.92,118.665 129.587,117.498 129.5,116.5 Z"/></g>
<g><path style="opacity:1" fill="#3d1e11" d="M 142.5,113.5 C 143.963,115.081 145.796,116.415 148,117.5C 148.474,123.015 146.974,123.682 143.5,119.5C 142.808,120.025 142.308,120.692 142,121.5C 141.278,118.739 141.445,116.073 142.5,113.5 Z"/></g>
<g><path style="opacity:1" fill="#5b2b15" d="M 44.5,122.5 C 43.791,123.404 42.791,123.737 41.5,123.5C 41.5,121.167 41.5,118.833 41.5,116.5C 43.9806,116.323 45.8139,117.323 47,119.5C 49.1338,118.39 51.3005,117.39 53.5,116.5C 53.2964,117.529 53.7964,118.529 55,119.5C 55.2163,117.616 55.883,115.949 57,114.5C 58.4177,117.001 59.4177,116.668 60,113.5C 60.6667,116.167 60.6667,118.833 60,121.5C 59.7811,120.062 59.2811,118.729 58.5,117.5C 57.8869,118.98 57.5536,120.313 57.5,121.5C 56.914,121.291 56.414,120.957 56,120.5C 53.4005,123.367 52.2338,123.201 52.5,120C 51.5509,119.383 50.7175,119.549 50,120.5C 49.4444,118.405 48.9444,118.238 48.5,120C 48.9054,120.945 49.572,121.612 50.5,122C 48.892,122.658 47.7253,122.158 47,120.5C 46.2917,121.381 45.4584,122.047 44.5,122.5 Z"/></g>
<g><path style="opacity:1" fill="#150a05" d="M 44.5,122.5 C 42.6997,121.105 42.3664,119.439 43.5,117.5C 44.4519,119.045 44.7852,120.712 44.5,122.5 Z"/></g>
<g><path style="opacity:1" fill="#5d2c15" d="M 75.5,112.5 C 77.369,114.635 78.0356,117.302 77.5,120.5C 75.2341,120.859 73.4007,120.192 72,118.5C 71.4806,119.516 70.6473,120.182 69.5,120.5C 68.0445,119.61 66.7112,119.61 65.5,120.5C 64.3756,115.279 63.5423,115.279 63,120.5C 62.5983,119.128 62.0983,117.795 61.5,116.5C 64.1293,114.95 65.9626,115.616 67,118.5C 67.3589,115.456 68.0255,115.122 69,117.5C 70.6549,117.198 71.9882,115.864 73,113.5C 74.2075,121.173 75.0408,120.839 75.5,112.5 Z"/></g>
<g><path style="opacity:1" fill="#5a2b15" d="M 157.5,116.5 C 159.852,117.952 160.185,119.952 158.5,122.5C 156.218,123.9 154.718,123.234 154,120.5C 153.047,122.592 151.714,122.925 150,121.5C 149.146,119.393 149.812,118.059 152,117.5C 153.032,119.145 154.199,119.478 155.5,118.5C 156.281,119.729 156.781,121.062 157,122.5C 157.495,120.527 157.662,118.527 157.5,116.5 Z"/></g>
<g><path style="opacity:1" fill="#413113" d="M 46.5,130.5 C 46.2249,132.758 45.2249,133.092 43.5,131.5C 42.7568,130.092 41.9234,128.759 41,127.5C 40.2828,128.044 39.7828,128.711 39.5,129.5C 38.2541,127.977 38.7541,126.977 41,126.5C 42.6407,128.139 44.474,129.473 46.5,130.5 Z"/></g>
<g><path style="opacity:1" fill="#3d2e12" d="M 159.5,129.5 C 159.217,128.711 158.717,128.044 158,127.5C 157.12,129.739 155.62,131.405 153.5,132.5C 152.702,132.043 152.369,131.376 152.5,130.5C 154.526,129.473 156.359,128.139 158,126.5C 160.246,126.977 160.746,127.977 159.5,129.5 Z"/></g>
<g><path style="opacity:1" fill="#0d0906" d="M 46.5,130.5 C 48.0496,129.28 49.7163,129.28 51.5,130.5C 55.2993,134.43 57.7993,139.096 59,144.5C 59.4974,141.854 59.6641,139.187 59.5,136.5C 63.4381,130.494 68.7714,128.994 75.5,132C 80.8333,137.667 80.8333,143.333 75.5,149C 86.7232,156.452 99.0565,158.452 112.5,155C 115.082,154.104 117.416,152.771 119.5,151C 121.473,150.505 123.473,150.338 125.5,150.5C 119.494,146.562 117.994,141.229 121,134.5C 127.933,128.721 134.099,129.388 139.5,136.5C 139.336,139.187 139.503,141.854 140,144.5C 141.709,139.415 144.209,134.748 147.5,130.5C 149.284,129.28 150.95,129.28 152.5,130.5C 152.369,131.376 152.702,132.043 153.5,132.5C 155.62,131.405 157.12,129.739 158,127.5C 158.717,128.044 159.217,128.711 159.5,129.5C 159.369,130.239 159.536,130.906 160,131.5C 160.708,130.619 161.542,129.953 162.5,129.5C 163.141,130.482 163.807,131.482 164.5,132.5C 164.154,133.696 163.654,133.696 163,132.5C 158.836,140.193 154.836,147.527 151,154.5C 150.667,154.167 150.333,153.833 150,153.5C 139.553,165.811 126.386,173.644 110.5,177C 111.448,177.483 112.448,177.649 113.5,177.5C 104.356,179.984 95.0227,180.151 85.5,178C 89.2259,176.957 88.8926,176.457 84.5,176.5C 62.0743,169.248 46.0743,154.748 36.5,133C 36.8361,131.97 37.5028,131.47 38.5,131.5C 39.3382,131.158 39.6716,130.492 39.5,129.5C 39.7828,128.711 40.2828,128.044 41,127.5C 41.9234,128.759 42.7568,130.092 43.5,131.5C 45.2249,133.092 46.2249,132.758 46.5,130.5 Z"/></g>
<g><path style="opacity:1" fill="#4e2d14" d="M 147.5,130.5 C 144.209,134.748 141.709,139.415 140,144.5C 139.503,141.854 139.336,139.187 139.5,136.5C 142.092,134.173 144.092,131.339 145.5,128C 148.646,126.071 149.312,126.904 147.5,130.5 Z"/></g>
<g><path style="opacity:1" fill="#512e15" d="M 59.5,136.5 C 59.6641,139.187 59.4974,141.854 59,144.5C 57.7993,139.096 55.2993,134.43 51.5,130.5C 49.6878,126.904 50.3545,126.071 53.5,128C 54.9078,131.339 56.9078,134.173 59.5,136.5 Z"/></g>
<g><path style="opacity:1" fill="#785c26" d="M 62.5,137.5 C 66.8333,137.5 71.1667,137.5 75.5,137.5C 75.5,139.5 75.5,141.5 75.5,143.5C 74.5,143.5 73.5,143.5 72.5,143.5C 72.4622,136.959 71.7955,136.959 70.5,143.5C 69.7022,141.922 69.2022,140.256 69,138.5C 68.5,139 68,139.5 67.5,140C 68.5171,141.049 68.6838,142.216 68,143.5C 65.5407,137.271 63.874,137.271 63,143.5C 62.5045,141.527 62.3379,139.527 62.5,137.5 Z"/></g>
<g><path style="opacity:1" fill="#27130a" d="M 139.5,136.5 C 134.099,129.388 127.933,128.721 121,134.5C 117.994,141.229 119.494,146.562 125.5,150.5C 123.473,150.338 121.473,150.505 119.5,151C 117.416,152.771 115.082,154.104 112.5,155C 99.0565,158.452 86.7232,156.452 75.5,149C 80.8333,143.333 80.8333,137.667 75.5,132C 68.7714,128.994 63.4381,130.494 59.5,136.5C 58.9916,133.148 57.6582,130.148 55.5,127.5C 58.3044,126.695 61.1377,126.028 64,125.5C 70.691,126.425 77.5243,126.091 84.5,124.5C 95.0772,124.782 105.577,124.782 116,124.5C 119,125.167 122,125.833 125,126.5C 128.908,125.994 132.908,125.661 137,125.5C 139.069,126.264 141.236,126.764 143.5,127C 141.467,129.896 140.134,133.063 139.5,136.5 Z"/></g>
<g><path style="opacity:1" fill="#7f3c1c" d="M 113.5,145.5 C 114.219,143.236 114.552,140.903 114.5,138.5C 104.434,136.974 94.4339,137.307 84.5,139.5C 84.5172,141.565 84.8505,143.565 85.5,145.5C 84.2521,144.666 83.5854,143.333 83.5,141.5C 83.3262,139.307 83.9929,137.473 85.5,136C 94.8446,134.18 104.178,134.18 113.5,136C 115.007,137.473 115.674,139.307 115.5,141.5C 115.415,143.333 114.748,144.666 113.5,145.5 Z"/></g>
<g><path style="opacity:1" fill="#6d5321" d="M 48.5,136.5 C 49.2674,137.172 49.9341,138.005 50.5,139C 48.4182,141.613 46.4182,141.78 44.5,139.5C 45.9014,138.479 47.2347,137.479 48.5,136.5 Z"/></g>
<g><path style="opacity:1" fill="#512613" d="M 113.5,145.5 C 104.186,144.36 94.8529,144.36 85.5,145.5C 84.8505,143.565 84.5172,141.565 84.5,139.5C 94.4339,137.307 104.434,136.974 114.5,138.5C 114.552,140.903 114.219,143.236 113.5,145.5 Z"/></g>
<g><path style="opacity:1" fill="#8b6a2a" d="M 124.5,140.5 C 124.631,139.761 124.464,139.094 124,138.5C 123.346,139.696 122.846,139.696 122.5,138.5C 123.325,137.614 124.325,137.281 125.5,137.5C 125.737,138.791 125.404,139.791 124.5,140.5 Z"/></g>
<g><path style="opacity:1" fill="#a57d30" d="M 126.5,137.5 C 127.5,137.5 128.5,137.5 129.5,137.5C 129.481,144.531 128.981,144.864 128,138.5C 127.019,144.864 126.519,144.531 126.5,137.5 Z"/></g>
<g><path style="opacity:1" fill="#654e21" d="M 130.5,137.5 C 132.833,138.833 135.167,138.833 137.5,137.5C 137.662,139.527 137.495,141.527 137,143.5C 136.107,144.711 135.274,144.711 134.5,143.5C 136.836,142.406 136.836,141.073 134.5,139.5C 133.148,140.518 132.148,141.851 131.5,143.5C 131.167,143.167 130.833,142.833 130.5,142.5C 131.535,140.872 131.535,139.205 130.5,137.5 Z"/></g>
<g><path style="opacity:1" fill="#836326" d="M 148.5,136.5 C 149.975,138.41 151.975,139.576 154.5,140C 154,140.5 153.5,141 153,141.5C 151.581,140.54 150.081,139.707 148.5,139C 147.402,138.23 147.402,137.397 148.5,136.5 Z"/></g>
<g><path style="opacity:1" fill="#765923" d="M 49.5,142.5 C 50.0024,140.915 51.0024,140.415 52.5,141C 51.7562,142.039 50.7562,142.539 49.5,142.5 Z"/></g>
<g><path style="opacity:1" fill="#7e6127" d="M 124.5,140.5 C 124.414,141.496 124.748,142.329 125.5,143C 121.956,143.679 121.623,142.846 124.5,140.5 Z"/></g>
<g><path style="opacity:1" fill="#775a23" d="M 49.5,142.5 C 48.9976,144.085 47.9976,144.585 46.5,144C 47.2438,142.961 48.2438,142.461 49.5,142.5 Z"/></g>
<g><path style="opacity:1" fill="#795b23" d="M 150.5,141.5 C 151.404,142.209 151.737,143.209 151.5,144.5C 149.897,144.688 148.563,144.188 147.5,143C 148.449,142.383 149.282,142.549 150,143.5C 150.464,142.906 150.631,142.239 150.5,141.5 Z"/></g>
<g><path style="opacity:1" fill="#705521" d="M 144.5,144.5 C 146.07,143.441 147.403,143.941 148.5,146C 146.934,146.3 145.601,145.8 144.5,144.5 Z"/></g>
<g><path style="opacity:1" fill="#54401b" d="M 52.5,142.5 C 53.8284,144.965 55.8284,146.799 58.5,148C 57,149.5 55.5,151 54,152.5C 51.3321,151.02 51.1655,149.52 53.5,148C 52.451,147.508 51.451,147.674 50.5,148.5C 49.5,148.167 48.8333,147.5 48.5,146.5C 50.188,145.479 51.5213,144.145 52.5,142.5 Z"/></g>
<g><path style="opacity:1" fill="#6a5020" d="M 142.5,145.5 C 144.922,146.085 146.589,147.585 147.5,150C 145.744,150.14 144.078,149.64 142.5,148.5C 141.438,147.575 141.438,146.575 142.5,145.5 Z"/></g>
<g><path style="opacity:1" fill="#412913" d="M 38.5,131.5 C 37.5028,131.47 36.8361,131.97 36.5,133C 46.0743,154.748 62.0743,169.248 84.5,176.5C 84.2648,177.097 83.7648,177.43 83,177.5C 78.8347,176.056 74.6681,174.722 70.5,173.5C 51.6927,163.853 38.6927,149.02 31.5,129C 32.4162,128.626 33.2496,128.126 34,127.5C 35.6667,128.733 37.1667,130.067 38.5,131.5 Z"/></g>
<g><path style="opacity:1" fill="#664d1f" d="M 138.5,151.5 C 138.62,150.414 139.287,149.747 140.5,149.5C 142.556,150.048 144.223,151.214 145.5,153C 144.5,153.5 143.5,154 142.5,154.5C 141.148,153.476 139.815,152.476 138.5,151.5 Z"/></g>
<g><path style="opacity:1" fill="#6a5020" d="M 60.5,151.5 C 62.2252,151.843 62.7252,152.843 62,154.5C 60.6667,155.833 59.3333,157.167 58,158.5C 57.3333,157.167 57.3333,155.833 58,154.5C 59.045,153.627 59.8783,152.627 60.5,151.5 Z"/></g>
<g><path style="opacity:1" fill="#6f5421" d="M 138.5,151.5 C 138.389,152.117 138.056,152.617 137.5,153C 138.981,153.98 140.315,155.147 141.5,156.5C 139.083,156.983 137.416,155.817 136.5,153C 136.836,151.97 137.503,151.47 138.5,151.5 Z"/></g>
<g><path style="opacity:1" fill="#553116" d="M 65.5,151.5 C 67.9664,150.366 70.633,150.199 73.5,151C 80.242,154.171 86.4086,157.005 92,159.5C 97.5492,158.087 103.049,158.254 108.5,160C 94.7387,162.69 82.072,160.024 70.5,152C 68.8659,151.506 67.1992,151.34 65.5,151.5 Z"/></g>
<g><path style="opacity:1" fill="#4f2e15" d="M 125.5,150.5 C 128.187,150.336 130.854,150.503 133.5,151C 128.445,152.045 123.778,154.045 119.5,157C 115.623,159.582 111.623,159.915 107.5,158C 114.117,156.746 120.117,154.246 125.5,150.5 Z"/></g>
<g><path style="opacity:1" fill="#442913" d="M 117.5,178.5 C 116.432,177.566 115.099,177.232 113.5,177.5C 112.448,177.649 111.448,177.483 110.5,177C 126.386,173.644 139.553,165.811 150,153.5C 150.333,153.833 150.667,154.167 151,154.5C 154.836,147.527 158.836,140.193 163,132.5C 163.654,133.696 164.154,133.696 164.5,132.5C 163.807,131.482 163.141,130.482 162.5,129.5C 163.458,129.047 164.292,128.381 165,127.5C 165.75,128.126 166.584,128.626 167.5,129C 158.254,153.08 141.587,169.58 117.5,178.5 Z"/></g>
<g><path style="opacity:1" fill="#664d1f" d="M 63.5,154.5 C 64.2176,156.246 65.2176,156.912 66.5,156.5C 65.5,158.167 64.1667,159.5 62.5,160.5C 61.5307,158.383 61.864,156.383 63.5,154.5 Z"/></g>
<g><path style="opacity:1" fill="#654c1e" d="M 133.5,154.5 C 133.991,155.893 135.491,156.893 138,157.5C 138.601,158.965 138.101,159.965 136.5,160.5C 135.576,158.61 134.243,157.11 132.5,156C 133.056,155.617 133.389,155.117 133.5,154.5 Z"/></g>
<g><path style="opacity:1" fill="#7b5d24" d="M 67.5,157.5 C 68.3764,157.369 69.0431,157.702 69.5,158.5C 68.6667,160.167 67.8333,161.833 67,163.5C 66.5518,161.776 65.7185,161.109 64.5,161.5C 65.5244,160.148 66.5244,158.815 67.5,157.5 Z"/></g>
<g><path style="opacity:1" fill="#705521" d="M 70.5,159.5 C 71.2389,159.369 71.9056,159.536 72.5,160C 71.283,161.648 70.4497,163.481 70,165.5C 69.5,165 69,164.5 68.5,164C 69.5822,162.67 70.2488,161.17 70.5,159.5 Z"/></g>
<g><path style="opacity:1" fill="#806125" d="M 128.5,158.5 C 130.074,158.937 131.241,159.937 132,161.5C 132.667,162.167 132.667,162.833 132,163.5C 130.667,163.5 129.333,163.5 128,163.5C 127.5,162.5 127,161.5 126.5,160.5C 126.846,159.304 127.346,159.304 128,160.5C 128.464,159.906 128.631,159.239 128.5,158.5 Z"/></g>
<g><path style="opacity:1" fill="#785a23" d="M 74.5,160.5 C 75.1516,162.621 74.4849,164.621 72.5,166.5C 72.1667,166.333 71.8333,166.167 71.5,166C 72.6394,164.22 73.6394,162.386 74.5,160.5 Z"/></g>
<g><path style="opacity:1" fill="#694f1f" d="M 79.5,163.5 C 80.9953,163.415 81.9953,164.081 82.5,165.5C 79.9046,170.605 78.9046,169.938 79.5,163.5 Z"/></g>
<g><path style="opacity:1" fill="#6e5320" d="M 79.5,163.5 C 77.8639,164.749 76.6972,166.416 76,168.5C 75.6942,166.049 76.1942,163.716 77.5,161.5C 78.5223,161.855 79.189,162.522 79.5,163.5 Z"/></g>
<g><path style="opacity:1" fill="#7a5d24" d="M 119.5,162.5 C 121.404,164.044 122.238,166.044 122,168.5C 120.681,166.713 119.848,164.713 119.5,162.5 Z"/></g>
<g><path style="opacity:1" fill="#6f5421" d="M 124.5,161.5 C 126.423,163.201 126.757,165.201 125.5,167.5C 124.026,166.564 123.026,165.23 122.5,163.5C 122.846,162.304 123.346,162.304 124,163.5C 124.464,162.906 124.631,162.239 124.5,161.5 Z"/></g>
<g><path style="opacity:1" fill="#715621" d="M 116.5,163.5 C 118.969,164.607 119.969,166.607 119.5,169.5C 118.178,169.33 117.011,169.663 116,170.5C 115.219,169.271 114.719,167.938 114.5,166.5C 115.195,165.524 115.862,164.524 116.5,163.5 Z"/></g>
<g><path style="opacity:1" fill="#7b5d24" d="M 102.5,166.5 C 106.343,167.931 106.509,169.931 103,172.5C 102.505,170.527 102.338,168.527 102.5,166.5 Z"/></g>
<g><path style="opacity:1" fill="#886728" d="M 86.5,165.5 C 87.6935,165.97 88.3601,166.97 88.5,168.5C 88.7207,172.08 87.7207,172.413 85.5,169.5C 86.2458,168.264 86.5792,166.93 86.5,165.5 Z"/></g>
<g><path style="opacity:1" fill="#755822" d="M 90.5,166.5 C 91.5,166.5 92.5,166.5 93.5,166.5C 93.7989,168.604 93.4656,170.604 92.5,172.5C 91.3652,171.897 90.3652,171.564 89.5,171.5C 90.3094,169.929 90.6427,168.262 90.5,166.5 Z"/></g>
<g><path style="opacity:1" fill="#705522" d="M 106.5,166.5 C 107.5,166.5 108.5,166.5 109.5,166.5C 109.261,168.467 109.594,170.301 110.5,172C 109.207,172.49 107.873,172.657 106.5,172.5C 106.5,170.5 106.5,168.5 106.5,166.5 Z"/></g>
<g><path style="opacity:1" fill="#806125" d="M 110.5,165.5 C 112.832,166.162 113.499,167.495 112.5,169.5C 115.131,171.005 114.797,171.671 111.5,171.5C 111.483,169.435 111.15,167.435 110.5,165.5 Z"/></g>
<g><path style="opacity:1" fill="#634b1e" d="M 95.5,166.5 C 96.4959,166.414 97.3292,166.748 98,167.5C 98.4935,169.134 98.6602,170.801 98.5,172.5C 97.0222,172.762 95.6888,172.429 94.5,171.5C 95.3094,169.929 95.6427,168.262 95.5,166.5 Z"/></g>
<g><path style="opacity:1" fill="#5c2d16" d="M 70.5,173.5 C 74.6681,174.722 78.8347,176.056 83,177.5C 83.7648,177.43 84.2648,177.097 84.5,176.5C 88.8926,176.457 89.2259,176.957 85.5,178C 95.0227,180.151 104.356,179.984 113.5,177.5C 115.099,177.232 116.432,177.566 117.5,178.5C 107.593,180.42 97.5929,180.92 87.5,180C 81.393,178.691 75.7264,176.525 70.5,173.5 Z"/></g>
</svg>
